# xmcd
#
# Track frame offsets: 
#        150
#        19768
#        35638
#        54800
#        71355
#        83785
#        93545
#        106073
#        119775
#        135905
#        154980
#        164675
#        181368
#        190575
#        202255
#        217825
#
# Disc length: 3041 seconds
#
# Revision: 0
# Processed by: cddbd v1.5.2PL0 Copyright (c) Steve Scherf et al.
# Submitted via: ExactAudioCopy v0.99pb1
#
DISCID=da0bdf10
DTITLE=Various Artist - 理查 愛的羅曼史
DYEAR=1900
DGENRE=Easy Listening
TTITLE0=Feeling
TTITLE1=Season In The Sun
TTITLE2=My Way
TTITLE3=Let It Be
TTITLE4=As Tear Goes By
TTITLE5=Yesterday
TTITLE6=Romeo And Julie
TTITLE7=The Godfather
TTITLE8=Without You
TTITLE9=Don't Cry Johnny
TTITLE10=Seven Lonely Days
TTITLE11=Jambalaya
TTITLE12=Wooden Heart
TTITLE13=Rose Rose I Love You
TTITLE14=Too Young
TTITLE15=Yellow Bikini
EXTD=
EXTT0=
EXTT1=
EXTT2=
EXTT3=
EXTT4=
EXTT5=
EXTT6=
EXTT7=
EXTT8=
EXTT9=
EXTT10=
EXTT11=
EXTT12=
EXTT13=
EXTT14=
EXTT15=
PLAYORDER=
